<svg class="animated" id="freepik_stories-fitness-stats" xmlns="http://www.w3.org/2000/svg" viewBox="0 0 500 500" version="1.1" xmlns:xlink="http://www.w3.org/1999/xlink" xmlns:svgjs="http://svgjs.com/svgjs"><style>svg#freepik_stories-fitness-stats:not(.animated) .animable {opacity: 0;}svg#freepik_stories-fitness-stats.animated #freepik--Character--inject-79 {animation: 1.5s Infinite  linear shake;animation-delay: 0s;}            @keyframes shake {                10%, 90% {                    transform: translate3d(-1px, 0, 0);                  }                  20%, 80% {                    transform: translate3d(2px, 0, 0);                  }                  30%, 50%, 70% {                    transform: translate3d(-4px, 0, 0);                  }                  40%, 60% {                    transform: translate3d(4px, 0, 0);                  }            }        .animator-hidden { display: none; }</style><g id="freepik--background-complete--inject-79" class="animable animator-hidden" style="transform-origin: 250px 228.23px;"><rect x="416.78" y="398.49" width="33.12" height="0.25" style="fill: rgb(235, 235, 235); transform-origin: 433.34px 398.615px;" id="el2d532fqslb6" class="animable"></rect><rect x="322.53" y="401.21" width="8.69" height="0.25" style="fill: rgb(235, 235, 235); transform-origin: 326.875px 401.335px;" id="elh19r8m4qtvm" class="animable"></rect><rect x="396.59" y="389.21" width="19.19" height="0.25" style="fill: rgb(235, 235, 235); transform-origin: 406.185px 389.335px;" id="elnxk606cl8j" class="animable"></rect><rect x="52.46" y="390.89" width="43.19" height="0.25" style="fill: rgb(235, 235, 235); transform-origin: 74.055px 391.015px;" id="elax1yjmp0ig5" class="animable"></rect><rect x="104.56" y="390.89" width="6.33" height="0.25" style="fill: rgb(235, 235, 235); transform-origin: 107.725px 391.015px;" id="ely7tv7st5fjl" class="animable"></rect><rect x="131.47" y="395.11" width="93.68" height="0.25" style="fill: rgb(235, 235, 235); transform-origin: 178.31px 395.235px;" id="el46logtdprhx" class="animable"></rect><path d="M237,337.8H43.91a5.71,5.71,0,0,1-5.7-5.71V60.66A5.71,5.71,0,0,1,43.91,55H237a5.71,5.71,0,0,1,5.71,5.71V332.09A5.71,5.71,0,0,1,237,337.8ZM43.91,55.2a5.46,5.46,0,0,0-5.45,5.46V332.09a5.46,5.46,0,0,0,5.45,5.46H237a5.47,5.47,0,0,0,5.46-5.46V60.66A5.47,5.47,0,0,0,237,55.2Z" style="fill: rgb(235, 235, 235); transform-origin: 140.46px 196.4px;" id="elsi92j2wsknb" class="animable"></path><path d="M453.31,337.8H260.21a5.72,5.72,0,0,1-5.71-5.71V60.66A5.72,5.72,0,0,1,260.21,55h193.1A5.71,5.71,0,0,1,459,60.66V332.09A5.71,5.71,0,0,1,453.31,337.8ZM260.21,55.2a5.47,5.47,0,0,0-5.46,5.46V332.09a5.47,5.47,0,0,0,5.46,5.46h193.1a5.47,5.47,0,0,0,5.46-5.46V60.66a5.47,5.47,0,0,0-5.46-5.46Z" style="fill: rgb(235, 235, 235); transform-origin: 356.75px 196.4px;" id="el50il21nz2r" class="animable"></path><rect y="382.4" width="500" height="0.25" style="fill: rgb(235, 235, 235); transform-origin: 250px 382.525px;" id="el2a306f7cm3t" class="animable"></rect><path d="M50.66,316.74l32-.12a4.7,4.7,0,0,1,4.7,4.7v11.29a4.71,4.71,0,0,0,4.71,4.71h47a4.72,4.72,0,0,0,4.72-4.7V291.16a4.69,4.69,0,0,1,4.71-4.68h10a4.71,4.71,0,0,0,4.71-4.71V259.15a4.7,4.7,0,0,1,4.7-4.7h16.39a4.71,4.71,0,0,1,4.7,4.7v6.66a4.71,4.71,0,0,0,4.71,4.71h1.53a4.7,4.7,0,0,0,4.7-4.7V241.2a4.71,4.71,0,0,1,4.71-4.71h16.23a4.72,4.72,0,0,1,4.71,4.71v24.66a4.7,4.7,0,0,0,4.7,4.7h5.06a4.7,4.7,0,0,0,4.7-4.7v-49.7h0v-24.9h1V206.6a3.58,3.58,0,0,1,.29-.39l37.35-21.45c.79-.86,1.24,0,1.24-1.15v-30.7l2.57-1.84,46.66-33.43V104.33h1v12.59l.19-.14V265.87a4.71,4.71,0,0,0,4.71,4.71h6.13a4.7,4.7,0,0,0,4.71-4.7l1.47-55.66a3.76,3.76,0,0,1,.37-1.55l9.12-19h.68V168.11a3.81,3.81,0,0,1,3.8-3.81h1.84V149.06h1V164.3h1a3.82,3.82,0,0,1,3.81,3.81v1h4.27v-1a3.81,3.81,0,0,1,3.8-3.81h1.62V149.06h1V164.3h1.18a3.82,3.82,0,0,1,3.81,3.81v21.52h.68l9.13,19a3.92,3.92,0,0,1,.37,1.55l1.5,55.6a4.71,4.71,0,0,0,4.71,4.71h8.61a4.71,4.71,0,0,1,4.7,4.7v6.48a4.69,4.69,0,0,0,4.7,4.7h6.15a4.68,4.68,0,0,1,4.64,3.89l16.38,86.08a4.41,4.41,0,0,1,.09.89,4.72,4.72,0,0,1-4.72,4.7H50.71C49.72,382,50.66,316.74,50.66,316.74Z" style="fill: rgb(245, 245, 245); transform-origin: 248.293px 243.13px;" id="eljyswn5wjlt" class="animable"></path><path d="M437.58,100.42H371.69c-8.44,0-10.48-11.82-2.51-14.59l.31-.1C360.67,78.38,380,62.89,401,84.34c-1.64-7.15,17-4.57,22.75,5.19C425.82,83.12,443.64,94.25,437.58,100.42Z" style="fill: rgb(245, 245, 245); transform-origin: 401.497px 86.9176px;" id="el4uwyff3v4uu" class="animable"></path><path d="M106.1,190.93H68.87s-8.73-3.29-7.6-12,14.31-1.45,14.31-1.45-4-12.15,8.77-8.7a18.88,18.88,0,0,1,14,15.49S115.13,181.35,106.1,190.93Z" style="fill: rgb(245, 245, 245); transform-origin: 84.969px 179.547px;" id="el93kvmbtsk4o" class="animable"></path><rect x="361.87" y="286.67" width="9.42" height="33.77" style="fill: rgb(224, 224, 224); transform-origin: 366.58px 303.555px;" id="elrfzwb4vu7wq" class="animable"></rect><rect x="380.37" y="308.37" width="9.42" height="12.07" style="fill: rgb(235, 235, 235); transform-origin: 385.08px 314.405px;" id="el29j1adh5wnw" class="animable"></rect><rect x="398.86" y="302.39" width="9.42" height="18.04" style="fill: rgb(235, 235, 235); transform-origin: 403.57px 311.41px;" id="eloqs8s674knq" class="animable"></rect><rect x="417.36" y="313.52" width="9.42" height="6.92" style="fill: rgb(235, 235, 235); transform-origin: 422.07px 316.98px;" id="elw042cjk8ww" class="animable"></rect><rect x="435.86" y="295.57" width="9.42" height="24.86" style="fill: rgb(230, 230, 230); transform-origin: 440.57px 308px;" id="el002dctbh4j84z" class="animable"></rect><rect x="54.71" y="289.2" width="68.52" height="8.39" style="fill: rgb(235, 235, 235); transform-origin: 88.97px 293.395px;" id="eldm6lm88hgci" class="animable"></rect><rect x="54.71" y="301.11" width="93.01" height="8.39" style="fill: rgb(224, 224, 224); transform-origin: 101.215px 305.305px;" id="elyw2kcray3e" class="animable"></rect><rect x="54.71" y="312.91" width="27.13" height="8.39" style="fill: rgb(235, 235, 235); transform-origin: 68.275px 317.105px;" id="elbzmq36cfa1" class="animable"></rect><text transform="translate(299.98 137.68)" style="font-size:12px;fill:#e0e0e0;font-family:Montserrat-Bold, Montserrat;font-weight:700">23 MILES</text></g><g id="freepik--Shadow--inject-79" class="animable" style="transform-origin: 250px 415.69px;"><ellipse id="freepik--path--inject-79" cx="250" cy="415.69" rx="193.89" ry="11.32" style="fill: rgb(245, 245, 245); transform-origin: 250px 415.69px;" class="animable"></ellipse></g><g id="freepik--Route--inject-79" class="animable" style="transform-origin: 241.645px 190.305px;"><polygon points="342.56 165.57 316.1 165.57 289.65 192.02 239.9 216.9 187.78 216.9 136.45 268.23 99.46 268.23 99.46 277.1 140.12 277.1 191.45 225.77 241.99 225.77 294.9 199.31 319.78 174.44 344.65 174.44 381.69 155.92 381.69 146 342.56 165.57" style="fill: #A8FBBB; transform-origin: 240.575px 211.55px;" id="eltktxskv1nw" class="animable"></polygon><path d="M99.15,230.2a9,9,0,0,0-9.05,9c0,3.18,3.67,9.67,6.33,14,1.52,2.45,2.72,4.19,2.72,4.19s1.2-1.74,2.7-4.19c2.67-4.29,6.33-10.78,6.33-14A9,9,0,0,0,99.15,230.2Zm0,13.49a4.12,4.12,0,1,1,4.11-4.11A4.11,4.11,0,0,1,99.15,243.69Z" style="fill: #A8FBBB; transform-origin: 99.14px 243.795px;" id="eltgdq994qol" class="animable"></path><g id="elhygs1zhmh99"><g style="opacity: 0.5; transform-origin: 235.895px 211.55px;" class="animable" id="ell2nggnwpp49"><polygon points="342.56 165.57 316.1 165.57 289.65 192.02 239.9 216.9 187.78 216.9 136.45 268.23 99.46 268.23 99.46 277.1 140.12 277.1 191.45 225.77 241.99 225.77 294.9 199.31 319.78 174.44 344.65 174.44 381.69 155.92 381.69 146 342.56 165.57" style="fill: rgb(255, 255, 255); transform-origin: 240.575px 211.55px;" id="elddjzw4crtm" class="animable"></polygon><path d="M99.15,230.2a9,9,0,0,0-9.05,9c0,3.18,3.67,9.67,6.33,14,1.52,2.45,2.72,4.19,2.72,4.19s1.2-1.74,2.7-4.19c2.67-4.29,6.33-10.78,6.33-14A9,9,0,0,0,99.15,230.2Zm0,13.49a4.12,4.12,0,1,1,4.11-4.11A4.11,4.11,0,0,1,99.15,243.69Z" style="fill: rgb(255, 255, 255); transform-origin: 99.14px 243.795px;" id="elxqafiuy6r08" class="animable"></path></g></g><path d="M381.69,103.51A11.5,11.5,0,0,0,370.18,115c0,4,4.66,12.31,8.06,17.77,1.93,3.13,3.45,5.34,3.45,5.34s1.53-2.21,3.45-5.34c3.39-5.46,8.05-13.73,8.05-17.77A11.5,11.5,0,0,0,381.69,103.51Zm0,17.17a5.24,5.24,0,1,1,5.24-5.24A5.23,5.23,0,0,1,381.69,120.68Z" style="fill: #A8FBBB; transform-origin: 381.685px 120.81px;" id="el4bbhkjj9xw9" class="animable"></path><g id="el2rvqz6qo6nx"><g style="opacity: 0.5; transform-origin: 381.685px 120.81px;" class="animable" id="elagt4ek5scxl"><path d="M381.69,103.51A11.5,11.5,0,0,0,370.18,115c0,4,4.66,12.31,8.06,17.77,1.93,3.13,3.45,5.34,3.45,5.34s1.53-2.21,3.45-5.34c3.39-5.46,8.05-13.73,8.05-17.77A11.5,11.5,0,0,0,381.69,103.51Zm0,17.17a5.24,5.24,0,1,1,5.24-5.24A5.23,5.23,0,0,1,381.69,120.68Z" style="fill: rgb(255, 255, 255); transform-origin: 381.685px 120.81px;" id="eli2zzhtqs5l" class="animable"></path></g></g></g><g id="freepik--Distance--inject-79" class="animable" style="transform-origin: 151.604px 120.059px;"><path d="M166.48,104.71a1.86,1.86,0,0,0-2.46.35l-2.47,3.69-11.88-7.2a1.87,1.87,0,0,0-2.35.42l-4.09,5.25a1.54,1.54,0,0,0,.22,2.29,1.86,1.86,0,0,0,2.46-.35l3.06-4,2.58,1.56-5.5,7.1h0l-9.59,12.3a1.53,1.53,0,0,0,.33,2.27,1.67,1.67,0,0,0,.94.28,1.89,1.89,0,0,0,1.5-.72l8.3-10.63h0l.24-.31a1.71,1.71,0,0,1,2.3-.54h0l2.36,1.53-6.34,3.59a1.65,1.65,0,0,0-.7,2.26,1.76,1.76,0,0,0,2.37.52l8.72-4.94a1.76,1.76,0,0,0,.91-1.37,1.52,1.52,0,0,0-.69-1.39l-2.14-1.38L158,110.6l2.85,1.73a1.86,1.86,0,0,0,.89.25,2,2,0,0,0,1.46-.67l3.5-4.91A1.54,1.54,0,0,0,166.48,104.71Z" style="fill: #A8FBBB; transform-origin: 151.604px 114.989px;" id="eljb3bnn7mv5d" class="animable"></path><path d="M158.7,105.48a3.6,3.6,0,0,0,3.64-3.2,3.09,3.09,0,0,0-3.2-3.23,3.6,3.6,0,0,0-3.64,3.2A3.08,3.08,0,0,0,158.7,105.48Z" style="fill: #A8FBBB; transform-origin: 158.92px 102.265px;" id="el24lbrgj5f3z" class="animable"></path><path d="M147.2,139.34v1.59h-6.34v-1.26l3.24-3.06c.74-.71.87-1.14.87-1.55,0-.66-.45-1-1.34-1a2.07,2.07,0,0,0-1.74.84l-1.41-.91a3.88,3.88,0,0,1,3.33-1.56c1.87,0,3.12,1,3.12,2.48a3.34,3.34,0,0,1-1.41,2.65l-1.93,1.82Z" style="fill: #A8FBBB; transform-origin: 143.84px 136.677px;" id="el5lh2tryf4bn" class="animable"></path><path d="M148,136.73c0-2.77,1.53-4.34,3.6-4.34s3.59,1.57,3.59,4.34-1.52,4.34-3.59,4.34S148,139.5,148,136.73Zm5.24,0c0-1.91-.67-2.7-1.64-2.7s-1.64.79-1.64,2.7.68,2.7,1.64,2.7S153.23,138.64,153.23,136.73Z" style="fill: #A8FBBB; transform-origin: 151.595px 136.73px;" id="elfnvzphjf0mo" class="animable"></path></g><g id="freepik--Time--inject-79" class="animable" style="transform-origin: 311.705px 94.1803px;"><path d="M305.79,95.47c0-2.77,1.54-4.34,3.6-4.34s3.6,1.57,3.6,4.34-1.52,4.34-3.6,4.34S305.79,98.24,305.79,95.47Zm5.24,0c0-1.91-.67-2.7-1.64-2.7s-1.63.79-1.63,2.7.67,2.7,1.63,2.7S311,97.38,311,95.47Z" style="fill: #A8FBBB; transform-origin: 309.39px 95.47px;" id="elrdi1fxulq7" class="animable"></path><path d="M320.87,97a2.88,2.88,0,0,1-3.18,2.79c-2.31,0-3.75-1.45-3.75-4.16,0-2.9,1.75-4.52,4.28-4.52a4.46,4.46,0,0,1,2.34.58l-.72,1.42a2.79,2.79,0,0,0-1.57-.42,2.23,2.23,0,0,0-2.36,2.44A2.84,2.84,0,0,1,318,94.4,2.67,2.67,0,0,1,320.87,97Zm-1.88.09a1.26,1.26,0,0,0-1.43-1.25,1.31,1.31,0,0,0-1.45,1.25c0,.72.54,1.25,1.48,1.25A1.26,1.26,0,0,0,319,97.11Z" style="fill: #A8FBBB; transform-origin: 317.405px 95.4568px;" id="elzo59qhxbhxm" class="animable"></path><path d="M321.64,98.59a1.17,1.17,0,0,1,2.33,0,1.17,1.17,0,1,1-2.33,0Z" style="fill: #A8FBBB; transform-origin: 322.805px 98.698px;" id="elqa665epargo" class="animable"></path><path d="M331.24,98.09v1.58H324.9V98.41l3.23-3.06c.75-.71.88-1.14.88-1.55,0-.66-.46-1-1.34-1a2.07,2.07,0,0,0-1.74.84l-1.42-.91a3.91,3.91,0,0,1,3.34-1.56c1.87,0,3.11,1,3.11,2.48a3.32,3.32,0,0,1-1.4,2.65l-1.93,1.83Z" style="fill: #A8FBBB; transform-origin: 327.875px 95.4172px;" id="el74g0qtmvgw" class="animable"></path><path d="M338.25,97.1c0,1.42-1.09,2.71-3.48,2.71a5.73,5.73,0,0,1-3.2-.9l.75-1.48a4.1,4.1,0,0,0,2.4.75c1,0,1.57-.39,1.57-1.08s-.46-1-1.57-1h-.88V94.79l1.72-2H332V91.27h5.88v1.26L336,94.69A2.39,2.39,0,0,1,338.25,97.1Z" style="fill: #A8FBBB; transform-origin: 334.91px 95.5406px;" id="el36afzgsgffr" class="animable"></path><path d="M339.09,98.59a1.17,1.17,0,0,1,2.33,0,1.17,1.17,0,1,1-2.33,0Z" style="fill: #A8FBBB; transform-origin: 340.255px 98.6982px;" id="elhjhzr0h6a1k" class="animable"></path><path d="M345.34,91.27v8.4H343.4V92.83h-1.68V91.27Z" style="fill: #A8FBBB; transform-origin: 343.53px 95.47px;" id="ellhni25y08j" class="animable"></path><path d="M353.84,97.23c0,1.59-1.42,2.58-3.55,2.58s-3.53-1-3.53-2.58a2.15,2.15,0,0,1,1.27-2,1.94,1.94,0,0,1-1-1.72c0-1.48,1.32-2.4,3.23-2.4s3.25.92,3.25,2.4a1.93,1.93,0,0,1-1,1.72A2.14,2.14,0,0,1,353.84,97.23Zm-2-.06c0-.74-.61-1.2-1.58-1.2s-1.56.46-1.56,1.2.6,1.22,1.56,1.22S351.87,97.92,351.87,97.17ZM349,93.61c0,.64.51,1,1.3,1s1.32-.39,1.32-1-.53-1-1.32-1S349,93,349,93.61Z" style="fill: #A8FBBB; transform-origin: 350.3px 95.46px;" id="el6k7h8a1khp" class="animable"></path><path d="M289.54,102.6a.87.87,0,0,1-.63-.28l-6-6.69a.84.84,0,0,1,1.25-1.12l6,6.69a.84.84,0,0,1-.06,1.18A.81.81,0,0,1,289.54,102.6Z" style="fill: #A8FBBB; transform-origin: 286.547px 98.4288px;" id="eld3sitdju30d" class="animable"></path><path d="M284.81,82.42V81.36h-3.42V82.5a13.7,13.7,0,0,0,2,27.27,13.71,13.71,0,0,0,1.46-27.35Zm-1.46,25.67a12,12,0,1,1,12-12A12.05,12.05,0,0,1,283.35,108.09Z" style="fill: #A8FBBB; transform-origin: 283.374px 95.5653px;" id="el8azihrwkamt" class="animable"></path><rect x="280.82" y="78.59" width="4.56" height="2.32" style="fill: #A8FBBB; transform-origin: 283.1px 79.75px;" id="eloetoyn4oys" class="animable"></rect><g id="el5os9aeogdrt"><g style="opacity: 0.6; transform-origin: 283.374px 94.1803px;" class="animable" id="ely64zyppkak"><path d="M289.54,102.6a.87.87,0,0,1-.63-.28l-6-6.69a.84.84,0,0,1,1.25-1.12l6,6.69a.84.84,0,0,1-.06,1.18A.81.81,0,0,1,289.54,102.6Z" style="fill: #A8FBBB; transform-origin: 286.547px 98.4288px;" id="elzvqgv14hrgm" class="animable"></path><path d="M284.81,82.42V81.36h-3.42V82.5a13.7,13.7,0,0,0,2,27.27,13.71,13.71,0,0,0,1.46-27.35Zm-1.46,25.67a12,12,0,1,1,12-12A12.05,12.05,0,0,1,283.35,108.09Z" style="fill: #A8FBBB; transform-origin: 283.374px 95.5653px;" id="el0fiu98rweyur" class="animable"></path><rect x="280.82" y="78.59" width="4.56" height="2.32" style="fill: #A8FBBB; transform-origin: 283.1px 79.75px;" id="elh0a0ad37lrc" class="animable"></rect></g></g></g><g id="freepik--heart-rate--inject-79" class="animable" style="transform-origin: 336.325px 237.642px;"><path d="M350.06,247.49h5.06c-4.31,4.49-10.52,8.92-16.42,13.4l-4,2.94-.09.06-3.9-3.26c-5-4.31-10.23-8.81-13.94-13.28h7.51l3.29-11.29,4.91,21.64L337,246.62l2.85,6.18L343.25,242,347,252.54Z" style="fill: #A8FBBB; transform-origin: 335.945px 249.975px;" id="el0hll0pw91s8" class="animable"></path><path d="M356.19,245.13H349.4l-2.13,3.51-4.09-11.55-3.5,11.28-2.7-5.86-4.19,10.15-5.1-22.43L323.4,245h-7.58c-4.65-6-6.21-11.92-.2-17.17,7.52-6.58,16.23-.45,20.64,3.53,4.65-3.69,14.86-11.24,22.69-1.42C362.89,234.86,360.52,240.23,356.19,245.13Z" style="fill: #A8FBBB; transform-origin: 336.325px 238.795px;" id="ellwiiroxe9i" class="animable"></path><path d="M329,211.5v8.4h-1.94v-6.84h-1.68V211.5Z" style="fill: #A8FBBB; transform-origin: 327.19px 215.7px;" id="el5tgwbqvjcdn" class="animable"></path><path d="M336.73,218.31v1.59h-6.35v-1.26l3.24-3.06c.74-.71.88-1.14.88-1.55,0-.66-.46-1-1.35-1a2,2,0,0,0-1.74.84l-1.41-.91a3.89,3.89,0,0,1,3.33-1.56c1.87,0,3.12,1,3.12,2.48a3.36,3.36,0,0,1-1.4,2.65l-1.93,1.82Z" style="fill: #A8FBBB; transform-origin: 333.365px 215.647px;" id="el9v8h8yl5hub" class="animable"></path><path d="M343.88,217.26c0,1.48-1.09,2.78-3.49,2.78a5.75,5.75,0,0,1-3.2-.9l.76-1.49a4.07,4.07,0,0,0,2.39.76c1,0,1.57-.41,1.57-1.09s-.43-1.09-2-1.09h-2.15l.43-4.73h5.12v1.56h-3.5l-.13,1.59h.68C342.9,214.65,343.88,215.77,343.88,217.26Z" style="fill: #A8FBBB; transform-origin: 340.535px 215.771px;" id="el1ilmagfg6x5" class="animable"></path></g><g id="freepik--Character--inject-79" class="animable" style="transform-origin: 245.634px 266.659px;"><rect x="176.21" y="189.8" width="7.24" height="0.75" style="fill: #A8FBBB; transform-origin: 179.83px 190.175px;" id="eln5udmun39s9" class="animable"></rect><rect x="188.97" y="189.8" width="18.67" height="0.75" style="fill: #A8FBBB; transform-origin: 198.305px 190.175px;" id="el70gprbmz3eu" class="animable"></rect><path d="M186.09,330.29h-7.42v-.75c12.4,0,25.09,0,37.72-.2v.75C206.29,330.22,196.12,330.29,186.09,330.29Z" style="fill: #A8FBBB; transform-origin: 197.53px 329.815px;" id="eltf3zsalkpur" class="animable"></path><path d="M172.57,330.24c-5.33,0-10.78-.08-16.19-.16v-.75c5.41.08,10.85.13,16.18.16Z" style="fill: #A8FBBB; transform-origin: 164.475px 329.785px;" id="elfd2xyrxoefm" class="animable"></path><rect x="144.88" y="329.33" width="6.06" height="0.75" style="fill: #A8FBBB; transform-origin: 147.91px 329.705px;" id="elsust4rhm4sh" class="animable"></rect><rect x="196.9" y="165.2" width="24.03" height="0.75" style="fill: #A8FBBB; transform-origin: 208.915px 165.575px;" id="elvydu02hhia" class="animable"></rect><rect x="189.7" y="165.2" width="3.1" height="0.75" style="fill: #A8FBBB; transform-origin: 191.25px 165.575px;" id="elkxr94ttiqmo" class="animable"></rect><rect x="291.34" y="341.39" width="17.29" height="0.75" style="fill: #A8FBBB; transform-origin: 299.985px 341.765px;" id="elf36llx241tj" class="animable"></rect><rect x="277.19" y="341.39" width="9.74" height="0.75" style="fill: #A8FBBB; transform-origin: 282.06px 341.765px;" id="elodvwhukrsh" class="animable"></rect><path d="M256.14,183.59c-14,1.24-33.25,7.41-32.8,10.56L203.2,219.22l-6.31,2.34s13.21-32.69,16.64-38.06c2.4-3.75,25.56-11.46,37.67-15.8,5.23-1.88,10,1.69,11.52,4.71C262.72,172.41,267.74,182.57,256.14,183.59Z" style="fill: rgb(226, 148, 113); transform-origin: 230.345px 194.369px;" id="el0fsm1i5bibq" class="animable"></path><path d="M203.2,219.22l-.46,5.46a6.53,6.53,0,0,1-2.21,4.37l-4.89,4.29a1.58,1.58,0,0,1-2.06,0l-3.32-2.82a1.57,1.57,0,0,1-.3-2.07l3.73-5.65,4.5-6S203.37,217.12,203.2,219.22Z" style="fill: rgb(226, 148, 113); transform-origin: 196.451px 225.261px;" id="elhmkwy78e468" class="animable"></path><path d="M180.64,363.93l-27.91,10.94c-.81-.7-5.56-10.09-5.56-10.09l24.75-11.43Z" style="fill: rgb(226, 148, 113); transform-origin: 163.905px 364.11px;" id="ely7zoch1iqtj" class="animable"></path><path d="M153.64,377.46a.31.31,0,0,1,.12-.32.32.32,0,0,1,.35,0c.17.12,4.37,2.94,4.78,5.08a1.48,1.48,0,0,1-.19,1.16,1.11,1.11,0,0,1-1.16.6c-.86-.11-1.75-1.41-2.46-2.87A20.07,20.07,0,0,1,153.64,377.46Zm4.51,4.35a13.45,13.45,0,0,0-3.64-3.65c.74,2.23,2.18,5.08,3.17,5.25.13,0,.32,0,.56-.36a.87.87,0,0,0,.12-.7,2.79,2.79,0,0,0-.2-.55Z" style="fill: #A8FBBB; transform-origin: 156.283px 380.54px;" id="elkx05ib4vkv" class="animable"></path><path d="M153.69,377.27a.28.28,0,0,1,.23-.2c.14,0,3.31-1.25,5.22-.4a2.2,2.2,0,0,1,1.12,1.31,1.1,1.1,0,0,1-.26,1.37c-1.17.85-4.94-.64-6.23-1.7l-.08-.1Zm5.17,0a7,7,0,0,0-4.22.23c1.54,1,4.41,1.92,5.06,1.36.06-.05.23-.17.05-.66l-.12-.15A1.54,1.54,0,0,0,158.86,377.24Z" style="fill: #A8FBBB; transform-origin: 157.042px 377.988px;" id="eleksspqwe7wc" class="animable"></path><path d="M154.87,374.69l-1.74-1.51a8.94,8.94,0,0,1-3.08-6.68l0-3a1.07,1.07,0,0,0-1.22-.61l-10.22,1.8c-1,.26-1.32,2.51-1.27,2.62,2.29,7.13,8.35,22,10.54,26.79s7.25,3.27,6.78,1.1c-2.09-9.71-.94-14.26.31-18.23A3.12,3.12,0,0,0,154.87,374.69Z" style="fill: #A8FBBB; transform-origin: 146.237px 380.062px;" id="elxs6iob8qoee" class="animable"></path><g id="elxn73geqqy8t"><g style="opacity: 0.2; transform-origin: 171.95px 361.14px;" class="animable" id="ely0c6b23i8m8"><path d="M163.26,357.35l8.66-4,8.72,10.58-12.77,5-2.06-2.51a9.81,9.81,0,0,1-2.19-5.29Z" id="elvbbyszeoyd" class="animable" style="transform-origin: 171.95px 361.14px;"></path></g></g><path d="M213.46,256.23a27.94,27.94,0,0,0-1.91,6.34c-2.24,11.47-5.36,50.38-7.39,65.17a8.74,8.74,0,0,1-5.33,6.65c-8.07,3.8-13.31,5-31.51,19.9,2.19,4.66,4.28,7.94,6.27,13.41,0,0,35.08-13.48,43.1-20.08,11.81-9.72,26.19-60.8,30.37-74,2.37-7.48,5.11-16.43.74-22.89C245.34,247.11,221.36,236.09,213.46,256.23Z" style="fill: rgb(38, 50, 56); transform-origin: 208.716px 306.078px;" id="elh5xtio8ve6v" class="animable"></path><path d="M259,169.82c2.65,3,3.89,5,3.09,13.76-1.57,17-.53,44.06-1.13,48.23C260,238.17,224.5,239,218,233.14l-12.89-52a12.45,12.45,0,0,1,10.27-15.32C218.33,165.37,250.94,160.79,259,169.82Z" style="fill: #A8FBBB; transform-origin: 233.536px 200.677px;" id="elhp12qfzon45" class="animable"></path><path d="M261,231.81h0a66.52,66.52,0,0,1,.7,17.42,39.9,39.9,0,0,0,8.32,28h0s-46.37-6.75-57.35-18.77L218,233.14A168.35,168.35,0,0,0,261,231.81Z" style="fill: rgb(38, 50, 56); transform-origin: 241.345px 254.52px;" id="el86kun5j08qd" class="animable"></path><path d="M228.78,152.71l-.76-.62s0,0,0,0c-2.22-2.81-3.08-6-4-11-.25-1.29-.5-2.68-.78-4.22a13.5,13.5,0,0,1,.2-6.16,14.22,14.22,0,0,1,1.22-3c1.19,4.44,1.36,9.05,1.77,13.6A39.71,39.71,0,0,0,228.78,152.71Z" style="fill: rgb(38, 50, 56); transform-origin: 225.878px 140.21px;" id="elv19zoe8es7e" class="animable"></path><path d="M229.77,147.35c.56,5.12.95,12.29-1.81,16.35a4.17,4.17,0,0,0-.13,4.68c1.63,2.47,5.37,6.18,14,10.45,2.53-3.12,3.45-5.66,3.62-7.59a5.38,5.38,0,0,0-3.16-5.29c-4.14-1.94-3.69-4.42-2.41-8.29Z" style="fill: rgb(226, 148, 113); transform-origin: 236.319px 163.09px;" id="elbasek3156wr" class="animable"></path><g id="elnrrvc7da8lg"><path d="M233.86,151.51l5.91,6.15a18.66,18.66,0,0,0-.8,3.13c-2.39-.55-6-3-6.32-5.68A8,8,0,0,1,233.86,151.51Z" style="opacity: 0.2; isolation: isolate; transform-origin: 236.21px 156.15px;" class="animable" id="el07g8w65eo2pp"></path></g><path d="M251.46,147.25a11.92,11.92,0,0,1-11.76,10.89h-.08a13.14,13.14,0,0,1-6.56-1.72A14.18,14.18,0,0,1,231,155c-.28-.22-.54-.45-.79-.66a17.17,17.17,0,0,1-2.14-2.25s0,0,0,0c-2.22-2.81-3.08-6-4-11-.25-1.29-.5-2.68-.78-4.22a13.5,13.5,0,0,1,.2-6.16,14.22,14.22,0,0,1,1.22-3,11,11,0,0,1,.77-1.23,13,13,0,0,1,14.15-5.14c4.46,1.19,7.53,4.81,9.47,9.25.19.44.37.89.54,1.34A35.51,35.51,0,0,1,251.46,147.25Z" style="fill: rgb(226, 148, 113); transform-origin: 237.333px 139.506px;" id="elg083zp0zkg" class="animable"></path><path d="M238.71,137.45c.1.79.59,1.39,1.09,1.33s.85-.77.76-1.56-.6-1.38-1.1-1.32S238.66,136.7,238.71,137.45Z" style="fill: rgb(38, 50, 56); transform-origin: 239.639px 137.34px;" id="elfe18e0t8u2" class="animable"></path><path d="M247.48,136.35c.11.81.6,1.39,1.1,1.33s.85-.77.75-1.56-.59-1.38-1.09-1.31S247.39,135.56,247.48,136.35Z" style="fill: rgb(38, 50, 56); transform-origin: 248.406px 136.244px;" id="elw2rzyrlnvt" class="animable"></path><path d="M245,138.13a21.45,21.45,0,0,0,3.41,4.71,3.41,3.41,0,0,1-2.72.88Z" style="fill: rgb(234, 87, 63); transform-origin: 246.705px 140.937px;" id="elg5103nlqnw4" class="animable"></path><path d="M235,136.11a.46.46,0,0,0,.45-.31,5.45,5.45,0,0,1,3.37-2.81.49.49,0,0,0,.33-.58.45.45,0,0,0-.55-.33h0a6.25,6.25,0,0,0-4,3.4.46.46,0,0,0,.28.59h0A.32.32,0,0,0,235,136.11Z" style="fill: rgb(38, 50, 56); transform-origin: 236.868px 134.088px;" id="el62j2s2m8fck" class="animable"></path><path d="M249.61,131.89a.5.5,0,0,0,.42-.22.48.48,0,0,0-.15-.65,4.45,4.45,0,0,0-4.22-.47.45.45,0,0,0-.23.59s0,0,0,0a.45.45,0,0,0,.6.23h0a3.59,3.59,0,0,1,3.3.41A.5.5,0,0,0,249.61,131.89Z" style="fill: rgb(38, 50, 56); transform-origin: 247.746px 131.056px;" id="el6slm7ztf5b" class="animable"></path><g id="ellt1xu3ao18"><path d="M228.78,143.74c-.41.54-1.73-2.34-2.4-2.48a9.73,9.73,0,0,0-2.41-.19c-.25-1.29-.5-2.68-.78-4.22a13.5,13.5,0,0,1,.2-6.16,14.22,14.22,0,0,1,1.22-3q-.09-.37-.21-.75h0a6.24,6.24,0,0,1,1-.48,4.59,4.59,0,0,1,2.43-.25,3.9,3.9,0,0,1,2.72,2.33C227.17,134.81,230.05,142.08,228.78,143.74Z" style="opacity: 0.2; isolation: isolate; transform-origin: 226.738px 134.977px;" class="animable" id="elgi9rd88mmab"></path></g><path d="M228,152.07c-3.71-3.14-7-7-8.48-11.66a15.3,15.3,0,0,1,3.95-15c.3-.29.8-.16,1.18,0s-.55.48-.44.8.13.45.19.66.15.5.21.75a14.22,14.22,0,0,0-1.22,3,13.5,13.5,0,0,0-.2,6.16c.28,1.54.53,2.93.78,4.22C224.92,146.05,225.78,149.26,228,152.07Z" style="fill: rgb(38, 50, 56); transform-origin: 223.474px 138.654px;" id="elmskpgr46xfl" class="animable"></path><path d="M221.51,144.66a7,7,0,0,0,4,3.54c2.31.76,3.58-1.31,3-3.6-.52-2.06-2.32-4.93-4.68-4.74a3.18,3.18,0,0,0-2.31,4.8Z" style="fill: rgb(226, 148, 113); transform-origin: 224.855px 144.106px;" id="el2i8l4wfb1s2" class="animable"></path><path d="M330.26,377.92l2.31,29.89c-.91.57-10.88,5.22-11.28,2.37-1.2-8.71-3.69-27-3.69-27Z" style="fill: rgb(226, 148, 113); transform-origin: 325.085px 394.509px;" id="elry2s3q34r7k" class="animable"></path><path d="M335.31,407.7a.31.31,0,0,1-.27-.21.3.3,0,0,1,.1-.33c.16-.14,4.09-3.32,6.25-3.1a1.48,1.48,0,0,1,1.06.53,1.1,1.1,0,0,1,.23,1.28c-.35.8-1.85,1.27-3.46,1.52A20.49,20.49,0,0,1,335.31,407.7Zm5.48-3a13.43,13.43,0,0,0-4.56,2.41c2.35-.06,5.5-.59,5.95-1.49.05-.13.09-.31-.18-.65a.92.92,0,0,0-.63-.32,2.92,2.92,0,0,0-.59,0Z" style="fill: #A8FBBB; transform-origin: 338.908px 405.876px;" id="elobyjb659sbq" class="animable"></path><path d="M335.14,407.59a.27.27,0,0,1-.12-.27c0-.15-.23-3.54,1.14-5.11a2.2,2.2,0,0,1,1.58-.69,1.1,1.1,0,0,1,1.24.65c.47,1.36-2.06,4.54-3.45,5.46l-.12.05Zm1.48-4.94a7,7,0,0,0-1,4.09c1.38-1.18,3.13-3.66,2.78-4.43,0-.07-.09-.27-.62-.25l-.17.08A1.5,1.5,0,0,0,336.62,402.65Z" style="fill: #A8FBBB; transform-origin: 337.021px 404.588px;" id="elh2fmclxb9g" class="animable"></path><path d="M333,405.72l-12.12,1.35a1.07,1.07,0,0,0-.95,1l-1.25,10.3c-.06,1,2,2,2.12,2,7.49-.11,23.46-1.56,28.71-2.26s5.24-6,3-6.16c-9.9-.84-13.92-3.26-17.35-5.62A3,3,0,0,0,333,405.72Z" style="fill: #A8FBBB; transform-origin: 336.306px 413.036px;" id="elymnb348svg" class="animable"></path><g id="el6xl168a5btb"><g style="opacity: 0.2; transform-origin: 324.33px 385.07px;" class="animable" id="elxpx4ccnhcb"><polygon points="318.84 392.22 317.6 383.17 330.26 377.92 331.06 390.16 318.84 392.22" id="elz3djk7z28ad" class="animable" style="transform-origin: 324.33px 385.07px;"></polygon></g></g><path d="M241.06,266.35c6.36,11.23,37.28,37.43,52.2,59.82,4.07,6.12,13.9,48.27,23.35,60.21l15-1.38c5.43-10.56-7.39-65.16-7.39-65.16-4.51-24-31.26-50.7-60.75-77.75-4.95-4.53-12.31-5.9-19.72-1.49C242.37,241.4,234.9,255.45,241.06,266.35Z" style="fill: rgb(38, 50, 56); transform-origin: 285.804px 312.144px;" id="el0tzu7eh3fo1" class="animable"></path><path d="M247.75,248.79c-1.18.27-2.41-.47-3.31-2a11.42,11.42,0,0,1-1.56-5.25l-3.27,4.24a2.85,2.85,0,0,1-2.41,1.47,1.74,1.74,0,0,1-1.23-.73,3.3,3.3,0,0,1-.44-2.52,6.46,6.46,0,0,1,7.41-4.83l-.12-.43,1-.27.06.24.22-.28,0,.42a4.33,4.33,0,0,1,4.1,1.47,7.74,7.74,0,0,1,1.61,4.62c.1,1.53-.36,3.46-1.95,3.84Zm-3.84-8.88,0,.2a10.47,10.47,0,0,0,1.39,6.19c.52.88,1.34,1.74,2.26,1.53,1.07-.26,1.26-1.9,1.2-2.83a6.73,6.73,0,0,0-1.37-4,3.47,3.47,0,0,0-2.8-1.21l-.64.16Zm-3.28.25a5.39,5.39,0,0,0-1.8.77,5.23,5.23,0,0,0-2.34,3.27,2.38,2.38,0,0,0,.27,1.74.8.8,0,0,0,.55.34c.56.06,1.08-.52,1.53-1.1l3.83-5-.18,0-.05-.18A4.81,4.81,0,0,0,240.63,240.16Z" style="fill: #A8FBBB; transform-origin: 242.635px 243.637px;" id="el00knu3qqk6gjm" class="animable"></path><path d="M236.14,262.32l-.83-.52A45.37,45.37,0,0,0,242.13,240l1,0A46.37,46.37,0,0,1,236.14,262.32Z" style="fill: #A8FBBB; transform-origin: 239.22px 251.16px;" id="el61ayodex4k6" class="animable"></path><path d="M255.56,262.13l-1,.12a34.07,34.07,0,0,0-11.51-21.51l.64-.74A35.07,35.07,0,0,1,255.56,262.13Z" style="fill: #A8FBBB; transform-origin: 249.305px 251.125px;" id="eliljtmyf0xfd" class="animable"></path><path d="M169,357.74l-.45-.87c11-5.75,39.64-22,39.64-28.09,0-12.49,12.22-94.59,12.34-95.41l1,.14c-.12.83-12.32,82.86-12.32,95.27C209.21,336.68,170.67,356.89,169,357.74Z" style="fill: rgb(255, 255, 255); transform-origin: 195.04px 295.555px;" id="elznecufpqj49" class="animable"></path><path d="M207.57,172.66c1.32-4,9.59-4.76,12.2-1.6,11.25,13.65,23.74,26.35,23.74,26.35l31.35-6.49,5.09,4.41s-32.37,16.21-38.75,16.22c-6.84,0-23.32-15.89-32-25.42C203.57,179.88,207.57,172.66,207.57,172.66Z" style="fill: rgb(226, 148, 113); transform-origin: 243.071px 190.326px;" id="elgbegtz980qo" class="animable"></path><path d="M274.86,190.92l5-2.22a6.52,6.52,0,0,1,4.89-.17l6.11,2.23a1.57,1.57,0,0,1,1,1.79l-.88,4.27a1.56,1.56,0,0,1-1.67,1.26l-6.75-.55-7.41-1.07S272.94,191.77,274.86,190.92Z" style="fill: rgb(226, 148, 113); transform-origin: 282.984px 193.111px;" id="elwl6y6bosbkq" class="animable"></path><polygon points="277.9 197.96 275.69 199.55 271.81 191.32 274.24 190.18 277.9 197.96" style="fill: rgb(38, 50, 56); transform-origin: 274.855px 194.865px;" id="el6fnbcrrumkv" class="animable"></polygon><g id="elqwlliry4dij"><path d="M270.92,190h4a1,1,0,0,1,1,1v.75a0,0,0,0,1,0,0h-6a0,0,0,0,1,0,0v-.75A1,1,0,0,1,270.92,190Z" style="fill: rgb(38, 50, 56); transform-origin: 272.92px 190.875px; transform: rotate(-25.23deg);" class="animable" id="elwfhu533fc"></path></g><path d="M220.77,136c1.14-3.8,4.74-6.39,8.46-7.75s7.73-1.81,11.51-3c2.51-.8,5.27-2.38,5.52-5a5.18,5.18,0,0,0-2-4.23,15.51,15.51,0,0,0-4.26-2.3,6.94,6.94,0,0,0-3.58-.76,2.39,2.39,0,0,0-2.14,2.53c-3.2-2-8-1.47-11,.83-2,1.55-3.33,4.58-1.82,6.63-1.74-.88-4.58.12-5.56,1.8a4,4,0,0,0,1.19,5.16c-2.65-.11-5.1,2.79-4.1,5.24S220,138.53,220.77,136Z" style="fill: rgb(38, 50, 56); transform-origin: 229.512px 125.225px;" id="eli4vwygh8898" class="animable"></path><path d="M245.82,146.53a34.41,34.41,0,0,0-1.28,4.83l-.89,0c-4-.15-5.78-1.53-6.57-3a5.13,5.13,0,0,1-.55-2.38,4.92,4.92,0,0,1,.17-1.38c2.06,1.34,5.77,1.76,7.76,1.9C245.29,146.53,245.82,146.53,245.82,146.53Z" style="fill: rgb(38, 50, 56); transform-origin: 241.175px 147.98px;" id="elp30f2gzjggf" class="animable"></path><path d="M244.46,146.46l-.42,1.42c-3.75-.15-6.37-.76-7.51-1.94a4.92,4.92,0,0,1,.17-1.38C238.76,145.9,242.47,146.32,244.46,146.46Z" style="fill: rgb(255, 255, 255); transform-origin: 240.495px 146.22px;" id="elwws7suk5th8" class="animable"></path><path d="M243.65,151.34c-4-.15-5.78-1.53-6.57-3a12.84,12.84,0,0,1,4.39,1A4.81,4.81,0,0,1,243.65,151.34Z" style="fill: rgb(222, 87, 83); transform-origin: 240.365px 149.84px;" id="elw2bt9ep9htg" class="animable"></path></g><defs>     <filter id="active" height="200%">         <feMorphology in="SourceAlpha" result="DILATED" operator="dilate" radius="2"></feMorphology>                <feFlood flood-color="#32DFEC" flood-opacity="1" result="PINK"></feFlood>        <feComposite in="PINK" in2="DILATED" operator="in" result="OUTLINE"></feComposite>        <feMerge>            <feMergeNode in="OUTLINE"></feMergeNode>            <feMergeNode in="SourceGraphic"></feMergeNode>        </feMerge>    </filter>    <filter id="hover" height="200%">        <feMorphology in="SourceAlpha" result="DILATED" operator="dilate" radius="2"></feMorphology>                <feFlood flood-color="#ff0000" flood-opacity="0.5" result="PINK"></feFlood>        <feComposite in="PINK" in2="DILATED" operator="in" result="OUTLINE"></feComposite>        <feMerge>            <feMergeNode in="OUTLINE"></feMergeNode>            <feMergeNode in="SourceGraphic"></feMergeNode>        </feMerge>            <feColorMatrix type="matrix" values="0   0   0   0   0                0   1   0   0   0                0   0   0   0   0                0   0   0   1   0 "></feColorMatrix>    </filter></defs></svg>